<svg fill="#000000" viewBox="0 0 32 32" id="icon" xmlns="http://www.w3.org/2000/svg"><g id="SVGRepo_bgCarrier" stroke-width="0"></g><g id="SVGRepo_tracerCarrier" stroke-linecap="round" stroke-linejoin="round"></g><g id="SVGRepo_iconCarrier"> <defs> <style> .cls-1 { fill: none; } </style> </defs> <g> <path d="M26,26H6V6H16V4H6A2.002,2.002,0,0,0,4,6V26a2.002,2.002,0,0,0,2,2H26a2.002,2.002,0,0,0,2-2V16H26Z"></path> <path d="M26,26H6V6H16V4H6A2.002,2.002,0,0,0,4,6V26a2.002,2.002,0,0,0,2,2H26a2.002,2.002,0,0,0,2-2V16H26Z"></path> </g> <polygon points="26 6 26 2 24 2 24 6 20 6 20 8 24 8 24 12 26 12 26 8 30 8 30 6 26 6"></polygon> <rect id="_Transparent_Rectangle_" data-name="<Transparent Rectangle>" class="cls-1" width="32" height="32"></rect> </g></svg>